<svg xmlns="http://www.w3.org/2000/svg" version="1.1" xmlns:xlink="http://www.w3.org/1999/xlink" xmlns:svgjs="http://svgjs.com/svgjs" width="512" height="512" x="0" y="0" viewBox="0 0 512.001 512.001" style="enable-background:new 0 0 512 512" xml:space="preserve" class="">
    <g transform="matrix(-1,1.2246467991473532e-16,-1.2246467991473532e-16,-1,512.0009918212891,512.0010375976562)">
        <path d="M345.229 347.915c-8.365 0-15.147 6.782-15.147 15.147v64.021c0 30.119-24.504 54.624-54.624 54.624-30.119 0-54.623-24.505-54.623-54.624V219.11c22.459-6.568 38.916-27.336 38.916-51.887 0-24.552-16.458-45.32-38.916-51.888V15.147C220.836 6.782 214.054 0 205.689 0s-15.147 6.782-15.147 15.147v100.188c-22.459 6.568-38.916 27.336-38.916 51.888 0 24.551 16.458 45.319 38.916 51.887v207.974c0 46.823 38.093 84.917 84.917 84.917 46.823 0 84.916-38.094 84.916-84.917v-64.021c.001-8.366-6.78-15.148-15.146-15.148zM205.69 190.991c-13.106 0-23.769-10.663-23.769-23.768 0-13.106 10.663-23.769 23.769-23.769 13.106 0 23.77 10.663 23.77 23.769s-10.664 23.768-23.77 23.768z" fill="#000000" data-original="#000000" class="" opacity="1">
        </path>
    </g>
</svg>