<svg xmlns="http://www.w3.org/2000/svg" version="1.1" xmlns:xlink="http://www.w3.org/1999/xlink" xmlns:svgjs="http://svgjs.com/svgjs" width="512" height="512" x="0" y="0" viewBox="0 0 488.648 488.648" style="enable-background:new 0 0 512 512" xml:space="preserve"><g><path d="m486.156 356.878-19.735-63.376c11.032-14.164 14.651-32.946 9.175-50.575l-15.339-49.31a55.36 55.36 0 0 0-36.268-36.437l-19.728-63.353c-9.016-28.99-39.959-45.266-68.963-36.235L313.785 64.3c-10.744 3.34-17.11 14.061-15.468 24.852a39.507 39.507 0 0 0-4.78-6.14 39.544 39.544 0 0 0-28.567-12.21H39.519a39.5 39.5 0 0 0-28.559 12.21A39.464 39.464 0 0 0 .041 112.09l12.402 277.628c1.464 24.578 21.913 43.827 46.563 43.827h186.478c24.627 0 45.09-19.279 46.581-43.946l12.392-277.508c.041-.85-.128-1.674-.144-2.513l91.157 292.855 4.764 15.292c3.684 11.858 16.324 18.496 28.183 14.804l21.496-6.686c29.006-9.039 45.267-39.96 36.243-68.965zm-362.653-28.494c0 11.512-9.375 20.871-20.873 20.871-11.504 0-20.855-9.359-20.855-20.871V141.777c0-11.496 9.351-20.871 20.855-20.871 11.497 0 20.873 9.375 20.873 20.871v186.607zm99.204 0c0 11.512-9.351 20.871-20.865 20.871-11.512 0-20.88-9.359-20.88-20.871V141.777c0-11.496 9.368-20.871 20.88-20.871 11.514 0 20.865 9.375 20.865 20.871v186.607zm217.085 64.945-10.487 3.283-94.393-303.249 10.506-3.274c11.095-3.443 22.913 2.777 26.355 13.842l22.69 72.912a17.086 17.086 0 0 0 14.739 11.922 21.347 21.347 0 0 1 18.565 14.97l15.341 49.311c2.594 8.31-.056 17.285-6.782 22.881-5.284 4.388-7.412 11.561-5.371 18.15l22.704 72.912c3.459 11.081-2.761 22.898-13.867 26.34z" fill="#000000" data-original="#000000"></path></g></svg>